<?xml version="1.0" encoding="UTF-8" standalone="no"?>
<!-- Created with Inkscape (http://www.inkscape.org/) -->

<svg
   width="148.09691mm"
   height="35.194729mm"
   viewBox="0 0 148.09691 35.194729"
   version="1.1"
   id="svg1"
   xml:space="preserve"
   inkscape:export-filename="master_kleur.svg"
   inkscape:export-xdpi="247.71046"
   inkscape:export-ydpi="247.71046"
   sodipodi:docname="bitmap.svg"
   xmlns:inkscape="http://www.inkscape.org/namespaces/inkscape"
   xmlns:sodipodi="http://sodipodi.sourceforge.net/DTD/sodipodi-0.dtd"
   xmlns="http://www.w3.org/2000/svg"
   xmlns:svg="http://www.w3.org/2000/svg"><sodipodi:namedview
     id="namedview1"
     pagecolor="#ffffff"
     bordercolor="#000000"
     borderopacity="0.25"
     inkscape:showpageshadow="2"
     inkscape:pageopacity="0.0"
     inkscape:pagecheckerboard="0"
     inkscape:deskcolor="#d1d1d1"
     inkscape:document-units="mm"
     inkscape:export-bgcolor="#ffffff00"><inkscape:page
       x="0"
       y="0"
       width="148.09691"
       height="35.194729"
       id="page2"
       margin="0"
       bleed="0" /></sodipodi:namedview><defs
     id="defs1" /><g
     inkscape:label="Laag 1"
     inkscape:groupmode="layer"
     id="layer1"
     transform="translate(164.72731,-199.95119)"><g
       id="g110"><g
         id="g53"
         transform="translate(-0.76023889,71.589162)"><path
           style="fill:#b4c6e2"
           d="m -111.19814,132.47073 c 2.67748,-0.007 7.04374,-0.007 9.7028,0 2.659064,0.007 0.4684,0.0132 -4.86814,0.0132 -5.33654,0 -7.51214,-0.006 -4.83466,-0.0132 z m 80.822801,0 c 2.677476,-0.007 7.043736,-0.007 9.7028,0 2.659063,0.007 0.468401,0.0132 -4.868139,0.0132 -5.33654,0 -7.512138,-0.006 -4.834661,-0.0132 z"
           id="path59" /><path
           style="fill:#8faad5"
           d="m -70.29565,142.09733 1.72e-4,-11.0871 1.8034,-9.6e-4 1.8034,-9.6e-4 -1.790586,0.0143 -1.790585,0.0143 -0.01299,11.07376 -0.01299,11.07376 z m 18.152209,2.81942 c 1.014881,-0.008 2.660801,-0.008 3.6576,1e-5 0.9968,0.008 0.166443,0.014 -1.845237,0.014 -2.01168,-1e-5 -2.827243,-0.006 -1.812363,-0.014 z m -44.569632,-9.46152 c 0,-1.63449 0.0064,-2.30314 0.01426,-1.4859 0.0078,0.81725 0.0078,2.15456 0,2.9718 -0.0078,0.81725 -0.01426,0.14859 -0.01426,-1.4859 z m -51.576997,-2.17169 c 1.49963,-0.007 3.96851,-0.007 5.4864,0 1.51788,0.007 0.29091,0.0136 -2.72661,0.0136 -3.01752,0 -4.25943,-0.006 -2.75979,-0.0136 z"
           id="path58" /><path
           style="fill:#a2a2a2"
           d="m -146.40682,145.12119 -0.0125,-5.34544 -0.8255,-0.0153 -0.8255,-0.0153 0.8271,-0.0113 c 0.62346,-0.009 0.83305,0.004 0.85128,0.0522 0.0133,0.0349 0.0182,2.45237 0.0109,5.3721 l -0.0133,5.3086 z"
           id="path57" /><path
           style="fill:#678cc6"
           d="m -108.499,153.12093 c -0.0133,-0.0349 -0.0182,-4.57835 -0.011,-10.0965 l 0.0132,-10.033 0.0126,10.07054 0.0126,10.07055 2.1209,0.0138 2.1209,0.0138 -2.12249,0.0121 c -1.66027,0.009 -2.12775,-0.002 -2.14663,-0.0514 z m 41.860668,-11.0109 c 0,-6.10489 0.0059,-8.60234 0.01315,-5.5499 0.0072,3.05245 0.0072,8.04736 0,11.0998 -0.0072,3.05245 -0.01315,0.55499 -0.01315,-5.5499 z m 23.925332,11.0109 c -0.01327,-0.0349 -0.01821,-4.69265 -0.01098,-10.3505 l 0.01315,-10.287 0.01258,10.32454 0.01258,10.32455 2.1209,0.0138 2.1209,0.0138 -2.122494,0.0121 c -1.660266,0.009 -2.12775,-0.002 -2.146628,-0.0514 z m 15.036798,0 c -0.01327,-0.0349 -0.01821,-4.57835 -0.01098,-10.0965 l 0.01316,-10.033 0.01257,10.07054 0.01257,10.07055 2.1209,0.0138 2.1209,0.0138 -2.122494,0.0121 c -1.660265,0.009 -2.127751,-0.002 -2.14663,-0.0514 z m -88.340868,-17.6657 c 0,-1.63449 0.006,-2.30314 0.0143,-1.4859 0.008,0.81725 0.008,2.15456 0,2.9718 -0.008,0.81725 -0.0143,0.14859 -0.0143,-1.4859 z m 80.822797,0 c 0,-1.63449 0.0064,-2.30314 0.01427,-1.4859 0.0078,0.81725 0.0078,2.15456 0,2.9718 -0.0078,0.81725 -0.01427,0.14859 -0.01427,-1.4859 z m 19.304,0 c 0,-1.63449 0.0064,-2.30314 0.01426,-1.4859 0.0078,0.81725 0.0078,2.15456 0,2.9718 -0.0078,0.81725 -0.01426,0.14859 -0.01426,-1.4859 z m -128.700627,0.1143 5.46057,-0.0132 0.71163,-0.69827 0.71162,-0.69827 -0.71052,0.7239 -0.71052,0.7239 -5.46168,-0.0125 -5.46168,-0.0125 z"
           id="path56" /><path
           style="fill:#1850ab"
           d="m -95.720878,153.15288 c -1.55611,-0.29987 -2.46705,-1.03057 -2.7472,-2.20365 -0.09025,-0.37793 -0.07641,-1.31298 0.0259,-1.74932 0.174482,-0.74414 0.597512,-1.34877 1.244706,-1.77902 0.827569,-0.55017 1.83406,-0.88763 4.943697,-1.65756 l 1.3081,-0.32388 -0.0016,-1.16941 c -8.62e-4,-0.64318 -0.02375,-1.34086 -0.05085,-1.55041 -0.128056,-0.98995 -0.445172,-1.75591 -0.947361,-2.28826 -0.631449,-0.66937 -1.403516,-0.857 -2.282298,-0.55465 -0.712895,0.24527 -1.391519,0.76025 -1.391519,1.05596 0,0.13276 0.02161,0.1541 0.187694,0.18525 0.483979,0.0908 0.888626,0.42163 1.111054,0.90839 0.12092,0.26461 0.133351,0.34277 0.113121,0.7112 -0.03516,0.64038 -0.325651,1.10199 -0.878469,1.39596 -0.223493,0.11884 -0.311965,0.13509 -0.7366,0.13531 -0.4099,2e-4 -0.520742,-0.0185 -0.735797,-0.12435 -0.659518,-0.32453 -1.042643,-1.12038 -0.890999,-1.85085 0.132967,-0.6405 0.94814,-1.63797 1.779196,-2.17709 1.003685,-0.65111 1.773895,-0.90781 2.9464,-0.98202 0.631816,-0.04 1.677031,0.0453 2.202529,0.17969 1.922943,0.49181 2.906669,1.83177 3.179258,4.33056 0.03379,0.30973 0.05381,2.17651 0.05381,5.0165 v 4.5232 h -1.827828 -1.827828 l -0.01367,-1.1303 -0.01367,-1.1303 -0.136965,0.25961 c -0.420656,0.79735 -1.473314,1.52135 -2.657035,1.82747 -0.386219,0.0999 -0.666316,0.13558 -1.1684,0.14891 -0.36322,0.01 -0.71755,0.007 -0.7874,-0.007 z m 3.649368,-1.92988 c 0.359258,-0.17508 0.745286,-0.56432 0.960732,-0.9687 l 0.1651,-0.30989 v -1.99328 -1.99328 l -0.1905,0.0308 c -0.311637,0.0504 -1.123348,0.32962 -1.578514,0.54291 -1.33517,0.62569 -2.093209,1.66467 -2.091183,2.86622 0.001,0.59666 0.185179,1.10917 0.539541,1.50141 0.479699,0.53097 1.469964,0.67706 2.194824,0.32379 z m 12.535364,1.87981 c -1.269773,-0.2293 -2.388679,-0.84694 -3.351465,-1.85003 -1.328238,-1.38383 -2.064547,-3.20729 -2.066917,-5.11869 -0.0023,-1.82517 0.636519,-3.44359 1.871303,-4.74114 0.577342,-0.60668 1.173902,-1.04672 1.916547,-1.4137 0.973524,-0.48106 1.867555,-0.71835 3.0734,-0.81572 1.31976,-0.10657 2.539308,0.0998 3.5306,0.59739 1.165936,0.58527 1.618852,1.17688 1.623398,2.12051 0.002,0.4079 -0.01468,0.49282 -0.154354,0.78755 -0.200682,0.42345 -0.563156,0.78583 -0.986299,0.98604 -0.293511,0.13888 -0.382018,0.15633 -0.793774,0.15656 -0.440703,2.4e-4 -0.482943,-0.01 -0.861396,-0.20295 -0.672161,-0.3432 -1.045594,-0.93846 -1.043304,-1.66303 0.0022,-0.69502 0.273815,-1.25259 0.767421,-1.57535 0.138975,-0.0909 0.253093,-0.19214 0.253595,-0.22503 0.0014,-0.0938 -0.234828,-0.25597 -0.549403,-0.37709 -0.401528,-0.15459 -1.277465,-0.19242 -1.73665,-0.075 -1.596476,0.40826 -2.723488,1.88174 -3.130281,4.09261 -0.105324,0.57242 -0.149649,2.19083 -0.07516,2.74432 0.281865,2.09442 1.387269,3.42233 3.313068,3.97994 0.561803,0.16267 1.084125,0.20596 1.64594,0.13642 1.201963,-0.14878 2.385875,-0.64723 3.002936,-1.26429 l 0.206205,-0.2062 0.188467,0.12806 c 0.215651,0.14654 0.215902,0.14252 -0.04446,0.71162 -0.748341,1.63572 -2.40788,2.78514 -4.461466,3.09007 -0.646857,0.096 -1.597237,0.0948 -2.137946,-0.003 z m 9.266068,-10.99278 v -11.0744 h 1.8034 1.8034 v 11.0744 11.0744 h -1.8034 -1.8034 z m 9.2202,11.0199 c -0.629747,-0.10568 -0.992118,-0.30968 -1.506559,-0.84814 -0.459018,-0.48045 -0.749975,-0.88652 -2.406837,-3.35907 l -1.263509,-1.88555 0.205337,-0.21567 c 0.112936,-0.11862 0.763389,-0.82219 1.445453,-1.56349 0.682063,-0.7413 2.233481,-2.42722 3.447595,-3.7465 l 2.20748,-2.39868 h 0.43173 0.431729 l -0.179939,0.1905 c -0.09897,0.10478 -1.272924,1.37677 -2.608795,2.82666 -2.270295,2.46407 -2.424551,2.64315 -2.362913,2.7432 0.126056,0.20462 3.981517,5.59642 4.344729,6.07604 0.344087,0.45436 0.700268,0.83479 0.989499,1.05686 0.424369,0.32582 1.124939,0.59291 1.730277,0.65967 l 0.327123,0.0361 0.01548,0.2413 0.01548,0.2413 -2.504684,-0.006 c -1.377576,-0.003 -2.618983,-0.0251 -2.758683,-0.0486 z m -47.434372,-10.0674 -0.0128,-10.0711 -0.5588,0.007 c -1.00141,0.0131 -2.43552,0.35574 -3.37255,0.8058 -0.86462,0.41528 -1.6467,1.03708 -2.13806,1.69989 -0.50875,0.68627 -0.87225,1.65495 -0.94897,2.5289 l -0.0323,0.3683 h -0.22114 -0.22115 v -2.9464 -2.9464 h 9.6266 9.626602 v 2.9464 2.9464 h -0.223444 -0.223445 l -0.03623,-0.3683 c -0.234997,-2.38897 -1.933985,-4.11246 -4.723883,-4.79199 -0.60402,-0.14713 -1.52769,-0.27531 -1.9838,-0.27531 h -0.3276 v 10.0838 10.0838 h -2.10807 -2.10808 z m 65.798572,-0.2413 v -10.3124 h 2.1082 2.1082 v 10.3124 10.3124 h -2.1082 -2.1082 z m 15.024226,0.2413 -0.01283,-10.0711 -0.5842,0.009 c -0.386909,0.006 -0.807872,0.0532 -1.246515,0.13943 -3.029924,0.59562 -4.872545,2.2942 -5.167889,4.76391 l -0.05951,0.49763 h -0.217443 -0.217443 v -2.9464 -2.9464 h 9.6266 9.6266 v 2.9464 2.9464 h -0.2286 c -0.217814,0 -0.2286,-0.007 -0.2286,-0.14575 0,-0.24642 -0.14923,-1.03016 -0.26243,-1.37825 -0.57925,-1.78121 -2.172812,-3.07253 -4.48737,-3.63629 -0.604024,-0.14713 -1.527689,-0.27531 -1.983802,-0.27531 h -0.327598 v 10.0838 10.0838 h -2.108074 -2.108075 z m -26.251026,3.0861 v -1.1938 h 3.6068 3.6068 v 1.1938 1.1938 h -3.6068 -3.6068 z m -104.675042,-5.41167 c -1.3163,-0.10841 -2.64562,-0.77398 -3.66038,-1.83271 -0.85103,-0.8879 -1.32746,-1.78595 -1.62763,-3.06802 -0.076,-0.32451 -0.0944,-0.59576 -0.0912,-1.3462 0.004,-0.84152 0.0175,-0.99027 0.13403,-1.4224 0.16293,-0.60437 0.4613,-1.29926 0.7787,-1.8136 0.35399,-0.57362 1.48909,-1.69379 2.01606,-1.98954 1.98502,-1.11405 3.95792,-1.19609 5.99566,-0.24931 l 0.45074,0.20942 -0.84827,0.84937 -0.84827,0.84938 -0.35769,-0.12166 c -0.3197,-0.10874 -0.44563,-0.12166 -1.18553,-0.12166 -0.79178,0 -0.8459,0.007 -1.24232,0.15127 -1.18835,0.43369 -2.07827,1.36035 -2.48726,2.58995 -0.14714,0.44237 -0.15972,0.53334 -0.15814,1.143 0.002,0.79339 0.067,1.07276 0.41393,1.77998 0.66582,1.35737 1.8065,2.10893 3.32882,2.19327 0.85831,0.0476 1.63243,-0.20063 2.413,-0.7736 0.18161,-0.13331 1.28041,-1.18736 2.44178,-2.34233 l 2.11158,-2.09994 h 5.45815 5.45815 l 0.90501,-0.90606 0.90502,-0.90606 -6.94197,-0.0353 -6.94197,-0.0353 -2.01537,1.99136 c -2.89067,2.85622 -2.89718,2.86125 -3.65468,2.82879 -0.29361,-0.0126 -0.50746,-0.0504 -0.63275,-0.11181 -0.29349,-0.14393 -0.61211,-0.45128 -0.77766,-0.75016 -0.13888,-0.25074 -0.15069,-0.31187 -0.15065,-0.78006 4e-5,-0.45192 0.015,-0.53627 0.13515,-0.76404 0.14201,-0.26909 0.48894,-0.62299 0.73595,-0.75072 0.28224,-0.14596 0.75057,-0.20602 1.08828,-0.13958 0.30189,0.0594 0.31238,0.0577 0.4953,-0.0811 0.10279,-0.078 0.98918,-0.9367 1.96976,-1.90827 l 1.78288,-1.7665 h 8.72147 8.72147 l 0.31539,-0.15921 c 1.35775,-0.68539 2.95791,-0.85738 4.42656,-0.4758 2.12394,0.55185 3.82698,2.24918 4.40899,4.39421 0.10587,0.39018 0.11709,0.53952 0.11637,1.5494 -7.7e-4,1.07333 -0.007,1.13873 -0.1473,1.651 -0.29394,1.07027 -0.69098,1.7879 -1.42624,2.57789 -0.9193,0.98771 -1.94163,1.61319 -3.10907,1.90219 -0.37286,0.0923 -0.59552,0.1109 -1.3364,0.11159 -0.96819,9.1e-4 -1.44518,-0.0608 -2.0066,-0.25969 -0.45917,-0.16264 -1.3462,-0.57639 -1.3462,-0.62792 0,-0.0219 0.36005,-0.40841 0.8001,-0.85893 l 0.8001,-0.81911 0.36458,0.1257 c 0.84794,0.29235 1.65397,0.3037 2.45718,0.0346 0.69934,-0.2343 1.0744,-0.47822 1.63769,-1.06509 0.53202,-0.55429 0.80263,-1.01674 0.98311,-1.68003 0.12544,-0.46101 0.12512,-1.57412 -5.8e-4,-2.02906 -0.37233,-1.34759 -1.32046,-2.33218 -2.69878,-2.80258 -0.3076,-0.10498 -0.44817,-0.12109 -1.0414,-0.11936 -1.06323,0.003 -1.59073,0.18437 -2.3876,0.82045 -0.23749,0.18957 -1.27972,1.18507 -2.31607,2.21221 l -1.88427,1.86754 h -5.44932 -5.44932 l -1.55678,1.5367 c -2.33473,2.3046 -2.84294,2.72854 -3.78632,3.15845 -1.03434,0.47136 -1.85867,0.59603 -3.20696,0.48498 z"
           id="path55" /><path
           style="fill:#5b5b5b"
           d="m -148.07109,145.84383 c 0,-3.3528 0.006,-4.73188 0.0135,-3.06463 0.007,1.66726 0.007,4.41046 1e-5,6.096 -0.007,1.68555 -0.0135,0.32143 -0.0135,-3.03137 z"
           id="path54" /><path
           style="fill:#000000"
           d="m -146.49548,163.42408 c -0.48651,-0.11092 -0.92837,-0.27698 -1.46686,-0.55127 -2.16561,-1.10312 -3.50344,-3.2673 -3.50821,-5.67518 -0.002,-0.99403 0.17273,-1.72756 0.66385,-2.78737 l 0.22056,-0.47597 0.44513,0.40871 c 0.24482,0.22479 0.62537,0.59116 0.84565,0.81416 0.44387,0.44932 0.42655,0.37666 0.23818,0.99907 -0.14293,0.47227 -0.18814,1.18274 -0.10729,1.68605 0.24101,1.50041 1.27831,2.71863 2.74519,3.224 0.45381,0.15635 0.52504,0.16638 1.1938,0.16811 0.60699,0.002 0.76703,-0.0156 1.0922,-0.11719 1.28285,-0.40076 2.33848,-1.41407 2.71728,-2.60834 0.32343,-1.01968 0.25619,-2.07359 -0.189,-2.96223 -0.29725,-0.59335 -0.69012,-1.03824 -2.71574,-3.07534 l -2.04774,-2.05934 v -5.34599 -5.34599 l -0.8509,0.0139 -0.8509,0.0139 -0.0129,6.07602 -0.0129,6.07602 0.92731,0.90625 c 1.98566,1.94059 3.22401,3.21115 3.42648,3.5156 0.25255,0.37975 0.31048,0.69869 0.22098,1.21668 -0.0732,0.42365 -0.22591,0.69437 -0.56231,0.99682 -0.50546,0.45445 -1.18052,0.58133 -1.73715,0.32649 -0.37739,-0.17277 -0.76634,-0.54029 -0.93359,-0.88213 -0.12603,-0.2576 -0.13173,-0.30264 -0.10693,-0.84453 0.0144,-0.31483 0.034,-0.61021 0.0436,-0.65639 0.0114,-0.0552 -0.59188,-0.68041 -1.76059,-1.8245 l -1.778,-1.74053 -0.0309,-2.3665 c -0.017,-1.30158 -0.0341,-4.25481 -0.0381,-6.56275 l -0.007,-4.19624 -0.38866,-0.0329 c -0.21377,-0.0181 -0.76812,-0.0337 -1.2319,-0.0348 l -0.84324,-0.002 1.13161,-1.11565 1.13161,-1.11565 2.27199,1.3e-4 c 1.2496,8e-5 2.73491,0.0151 3.30069,0.0335 l 1.0287,0.0333 v 5.99527 5.99527 l 1.84414,1.85796 c 1.92149,1.93591 2.16531,2.22571 2.58897,3.07717 0.77191,1.5514 0.86881,3.43331 0.25633,4.9784 -0.72555,1.83032 -2.20453,3.21353 -4.10524,3.83938 -0.50427,0.16604 -0.86679,0.23753 -1.6256,0.25685 -0.75881,0.0193 -1.20192,-0.0802 -1.4224,-0.1303 z m 5.31666,-12.2816 -1.08413,-1.10326 -0.0287,-6.25073 -0.0287,-6.25073 h 0.78706 c 0.43289,0 1.41153,-0.0152 2.17475,-0.0337 l 1.38769,-0.0337 2.11654,-2.08715 c 1.16409,-1.14793 2.21588,-2.15573 2.33732,-2.23955 0.21434,-0.14795 0.23798,-0.15239 0.80933,-0.15194 0.50399,3.9e-4 0.61791,0.0161 0.79299,0.10949 0.27118,0.14462 0.66509,0.57191 0.80169,0.86962 0.15784,0.34403 0.15353,0.95263 -0.009,1.31668 -0.14444,0.32289 -0.57067,0.73913 -0.90584,0.88464 -0.29105,0.12635 -0.75252,0.14748 -1.09346,0.0501 -0.21567,-0.0616 -0.25453,-0.0595 -0.37667,0.0205 -0.0749,0.0491 -0.90394,0.8488 -1.84231,1.77717 l -1.70613,1.68793 -1.44556,0.0346 c -0.79505,0.019 -1.45766,0.0467 -1.47246,0.0615 -0.0148,0.0148 -0.0354,2.73996 -0.0457,6.05591 -0.0103,3.31595 -0.0335,6.10932 -0.0515,6.20749 l -0.0327,0.17848 z"
           id="path53"
           sodipodi:nodetypes="cssscssssscsssscccccccssssssscscsccsscccsccccsssszccccccsccssssscssssccssscc" /></g><path
         d="m -104.16806,232.28008 c -0.23595,-0.0605 -0.40524,-0.1849 -0.50822,-0.37336 -0.0767,-0.14034 -0.0937,-0.34519 -0.11536,-1.3889 -0.0194,-0.93331 -0.042,-1.2442 -0.0951,-1.3081 -0.0635,-0.0764 -0.0419,-0.0838 0.24247,-0.0838 h 0.31219 l -0.0815,0.12447 c -0.0702,0.1072 -0.0792,0.28647 -0.0647,1.29179 0.0157,1.08597 0.0242,1.1773 0.12209,1.31063 0.30537,0.41595 0.98792,0.41962 1.23969,0.007 0.0951,-0.156 0.10254,-0.2542 0.10271,-1.35796 1.7e-4,-1.03601 -0.0107,-1.20181 -0.0839,-1.2827 -0.0804,-0.0889 -0.0724,-0.0929 0.18567,-0.0929 0.25811,0 0.26612,0.004 0.18568,0.0929 -0.0723,0.0799 -0.0844,0.23833 -0.0863,1.1303 -0.003,1.37066 -0.0461,1.56513 -0.40777,1.83513 -0.14273,0.10656 -0.69009,0.16193 -0.94764,0.0958 z m 17.407908,-0.0198 c -0.93834,-0.26585 -1.39838,-1.29659 -0.98741,-2.21235 0.54925,-1.2239 2.32336,-1.26625 2.9028,-0.0693 0.11927,0.24639 0.14067,0.35555 0.14156,0.72207 9.7e-4,0.39529 -0.0135,0.45884 -0.1714,0.75161 -0.27602,0.51187 -0.73881,0.80642 -1.3356,0.8501 -0.18174,0.0133 -0.41822,-0.005 -0.54995,-0.0422 z m 0.96771,-0.22152 c 0.25528,-0.10481 0.53473,-0.39748 0.66609,-0.69758 0.30221,-0.69048 -0.0301,-1.64108 -0.68436,-1.95781 -0.23858,-0.11549 -0.69243,-0.14135 -0.92553,-0.0527 -0.26261,0.0999 -0.5223,0.35575 -0.67877,0.66886 -0.13006,0.26029 -0.15543,0.37058 -0.15543,0.67582 0,0.30547 0.0253,0.41548 0.15587,0.6767 0.34364,0.68766 0.97196,0.95367 1.62213,0.68674 z m 56.068851,0.23211 c -0.265457,-0.0625 -0.464369,-0.17236 -0.70383,-0.3887 -0.610888,-0.5519 -0.669335,-1.59273 -0.12514,-2.2285 0.375906,-0.43916 1.040176,-0.63473 1.69241,-0.49826 0.18957,0.0397 0.350396,0.0721 0.357392,0.0721 0.007,0 0.01127,0.12002 0.0095,0.2667 -0.0023,0.1909 -0.01516,0.23782 -0.04524,0.1651 -0.09353,-0.22613 -0.295527,-0.34828 -0.61404,-0.37132 -0.462364,-0.0334 -0.738582,0.0651 -1.047797,0.3737 -0.543529,0.54249 -0.560687,1.38483 -0.04058,1.99245 0.4856,0.56732 1.427976,0.64633 1.748137,0.14658 l 0.102637,-0.16021 8.56e-4,0.25886 8.56e-4,0.25887 -0.382444,0.084 c -0.415897,0.0914 -0.655472,0.0986 -0.952707,0.0286 z m -78.471649,-0.0969 c 0.0965,-0.0965 0.1016,-0.16933 0.1016,-1.4619 0,-1.18561 -0.0108,-1.37577 -0.0844,-1.48078 l -0.0844,-0.12048 0.56144,0.0266 c 0.45876,0.0217 0.59928,0.0479 0.76835,0.1429 0.45136,0.25368 0.48033,0.79558 0.0601,1.12445 l -0.15249,0.11935 0.22619,0.11999 c 0.48485,0.25721 0.58034,0.9313 0.1899,1.34055 -0.19232,0.2016 -0.54961,0.29091 -1.16374,0.29091 h -0.52418 z m 1.01889,-0.10156 c 0.0994,-0.0276 0.24797,-0.12047 0.3302,-0.20636 0.12761,-0.13328 0.14915,-0.19514 0.14701,-0.42232 -0.005,-0.50028 -0.31183,-0.79376 -0.83067,-0.79376 h -0.25903 v 0.7366 0.7366 l 0.2159,-2.8e-4 c 0.11875,-1.6e-4 0.29721,-0.0229 0.39659,-0.0505 z m -0.004,-1.66382 c 0.3146,-0.15779 0.39748,-0.52119 0.18944,-0.83061 -0.12301,-0.18295 -0.35555,-0.29192 -0.63324,-0.29674 l -0.1651,-0.003 v 0.6096 0.6096 l 0.2159,-8e-5 c 0.11875,-4e-5 0.29559,-0.0401 0.393,-0.0889 z m 6.06767,1.78715 c 0.0687,-0.0687 0.0798,-0.27502 0.0798,-1.4819 0,-1.23335 -0.0101,-1.41325 -0.0841,-1.49497 -0.0807,-0.0891 -0.0701,-0.0929 0.26187,-0.0929 0.33193,0 0.34254,0.004 0.26188,0.0929 -0.0739,0.0817 -0.0841,0.26071 -0.0841,1.4819 0,1.22119 0.0102,1.40022 0.0841,1.4819 0.0807,0.0891 0.0702,0.0929 -0.25763,0.0929 -0.31064,0 -0.33445,-0.007 -0.26188,-0.0798 z m 2.129358,-0.0131 c 0.0739,-0.0817 0.0841,-0.26071 0.0841,-1.4819 0,-1.22119 -0.0102,-1.40022 -0.0841,-1.4819 -0.0807,-0.0891 -0.0701,-0.0929 0.26187,-0.0929 h 0.34595 l -0.0968,0.10687 c -0.0902,0.0996 -0.0968,0.20106 -0.0968,1.4859 v 1.37903 l 0.508,0.0129 c 0.58513,0.0148 0.71969,-0.0315 0.85082,-0.29297 l 0.0888,-0.17709 8e-5,0.3175 8e-5,0.3175 h -0.97308 c -0.93948,0 -0.97017,-0.003 -0.889,-0.0929 z m 3.3528,0 c 0.0739,-0.0816 0.0841,-0.26011 0.0841,-1.4732 v -1.3803 h -0.30065 c -0.3738,0 -0.45412,0.0301 -0.52683,0.19743 -0.0571,0.13145 -0.0579,0.13082 -0.0757,-0.0631 -0.0322,-0.35056 -0.0738,-0.33756 1.07938,-0.33756 h 1.04299 l -0.004,0.2667 c -0.002,0.14669 -0.0166,0.23241 -0.032,0.1905 -0.0755,-0.20525 -0.17775,-0.254 -0.53293,-0.254 h -0.35002 l 0.015,1.40116 c 0.0141,1.31893 0.0208,1.40538 0.1136,1.4732 0.0887,0.0648 0.0635,0.072 -0.24917,0.072 -0.33371,0 -0.34438,-0.004 -0.26371,-0.0929 z m 5.44059,-0.02 c 0.0668,-0.0954 0.0791,-0.32425 0.0791,-1.4732 v -1.3603 h -0.35634 c -0.34713,0 -0.35901,0.004 -0.45892,0.1651 l -0.10257,0.1651 0.0144,-0.254 0.0144,-0.254 1.0541,-0.0137 1.0541,-0.0137 -0.004,0.26773 c -0.002,0.14725 -0.0166,0.23344 -0.032,0.19153 -0.0753,-0.20491 -0.1779,-0.254 -0.53064,-0.254 h -0.34772 v 1.3716 c 0,1.30387 0.005,1.37662 0.1016,1.4732 l 0.1016,0.1016 h -0.33308 -0.33308 z m 9.2456,0 c 0.0667,-0.0953 0.0791,-0.32317 0.0791,-1.4619 0,-1.13873 -0.0123,-1.36659 -0.0791,-1.4619 -0.0781,-0.11157 -0.0764,-0.1129 0.14567,-0.1129 h 0.22475 l 0.44697,1.0541 c 0.24583,0.57976 0.49603,1.16798 0.556,1.30717 l 0.10903,0.25307 0.55392,-1.30717 0.55392,-1.30717 h 0.24589 c 0.24396,0 0.24527,8.9e-4 0.16681,0.1129 -0.0668,0.0954 -0.0791,0.32425 -0.0791,1.4732 0,1.29257 0.005,1.36536 0.1016,1.4619 l 0.1016,0.1016 h -0.33137 -0.33137 l 0.0783,-0.11946 c 0.0662,-0.10102 0.0762,-0.31442 0.0647,-1.38207 l -0.0136,-1.2626 -0.58103,1.35956 c -0.31956,0.74775 -0.59502,1.3682 -0.61213,1.37877 -0.0171,0.0106 -0.27935,-0.56223 -0.58277,-1.27289 -0.30342,-0.71066 -0.55945,-1.29211 -0.56897,-1.29211 -0.01,0 -0.0173,0.53721 -0.0173,1.1938 0,1.12607 0.006,1.19956 0.1016,1.2954 l 0.1016,0.1016 h -0.25688 c -0.25531,0 -0.2564,-6.9e-4 -0.1778,-0.1129 z m 4.53431,-0.001 c 0.0573,-0.0629 0.33854,-0.74295 0.62502,-1.5113 0.28648,-0.76835 0.53739,-1.4281 0.55758,-1.46612 0.0221,-0.0416 0.23462,0.46414 0.53371,1.27 0.66128,1.7817 0.62629,1.69985 0.7529,1.76103 0.0896,0.0433 0.0373,0.0545 -0.26665,0.0573 -0.32137,0.003 -0.36452,-0.006 -0.28803,-0.0624 0.0845,-0.0618 0.0764,-0.10261 -0.13377,-0.6731 l -0.22374,-0.60731 -0.42802,-0.0142 -0.42803,-0.0142 -0.22517,0.61767 c -0.21654,0.59398 -0.22152,0.62034 -0.12999,0.68727 0.0849,0.0621 0.0659,0.0696 -0.17738,0.0696 h -0.27257 z m 1.44964,-1.4387 c 0.0312,-0.0312 -0.24725,-0.83345 -0.31261,-0.90046 -0.0329,-0.0338 -0.35986,0.77691 -0.35986,0.89234 0,0.0434 0.62959,0.051 0.67247,0.008 z m 2.44811,1.47317 c 0.0687,-0.0687 0.0798,-0.27502 0.0798,-1.4819 0,-1.23335 -0.0101,-1.41325 -0.0841,-1.49497 -0.0807,-0.0891 -0.0701,-0.0929 0.26187,-0.0929 0.33193,0 0.34254,0.004 0.26187,0.0929 -0.0683,0.0755 -0.0841,0.20622 -0.0841,0.69771 v 0.6048 l 0.60933,-0.60774 c 0.44688,-0.44571 0.60172,-0.63173 0.58078,-0.69771 -0.0247,-0.0779 0.006,-0.09 0.22429,-0.09 h 0.25285 l -0.62744,0.61518 -0.62743,0.61519 0.54954,0.81991 c 0.52555,0.78412 0.69845,0.99702 0.86688,1.06745 0.0419,0.0175 -0.0431,0.0239 -0.18881,0.0141 -0.14576,-0.01 -0.30345,-0.0497 -0.35043,-0.0887 -0.047,-0.039 -0.31232,-0.41018 -0.58967,-0.82487 -0.4895,-0.73191 -0.50712,-0.75139 -0.60207,-0.66546 -0.087,0.0787 -0.0978,0.16157 -0.0978,0.74974 0,0.54399 0.0149,0.6777 0.0841,0.75413 0.0807,0.0891 0.0702,0.0929 -0.25763,0.0929 -0.31064,0 -0.33445,-0.007 -0.26188,-0.0798 z m 3.68662,-0.0218 c 0.0966,-0.0966 0.1016,-0.16933 0.1016,-1.4732 0,-1.30387 -0.005,-1.37662 -0.1016,-1.4732 l -0.1016,-0.1016 h 0.9144 0.9144 l -0.002,0.2413 -0.002,0.2413 -0.0758,-0.1397 -0.0758,-0.1397 h -0.58257 -0.58258 v 0.5842 0.5842 h 0.45357 c 0.3446,0 0.47275,-0.0192 0.5334,-0.0798 0.0726,-0.0726 0.0798,-0.0564 0.0798,0.1778 v 0.25763 l -0.1016,-0.1016 c -0.0857,-0.0857 -0.16933,-0.1016 -0.5334,-0.1016 h -0.4318 v 0.7366 0.7366 h 0.5475 c 0.58462,0 0.7347,-0.0495 0.82453,-0.27214 0.0333,-0.0825 0.0447,-0.0443 0.0471,0.15784 l 0.003,0.2667 h -0.9652 -0.9652 z m 5.37762,0.007 c 0.0519,-0.0519 0.15428,-0.25195 0.22745,-0.4445 0.0732,-0.19255 0.32597,-0.86444 0.56176,-1.49309 0.4098,-1.09258 0.43131,-1.13628 0.48759,-0.9906 0.0324,0.0838 0.25271,0.67512 0.489607,1.31401 0.57432,1.54885 0.57389,1.54785 0.69654,1.63376 0.0982,0.0688 0.0764,0.0748 -0.26977,0.0748 -0.33031,0 -0.36498,-0.009 -0.28197,-0.0692 0.0908,-0.0664 0.0857,-0.0941 -0.12835,-0.68761 l -0.222997,-0.61841 -0.42862,0.0145 -0.42862,0.0145 -0.19532,0.52839 c -0.2054,0.55567 -0.2367,0.74185 -0.13182,0.78417 0.0349,0.0141 -0.0565,0.0274 -0.2032,0.0296 -0.25993,0.004 -0.2643,0.002 -0.17228,-0.0904 z m 1.48038,-1.46156 c 0,-0.0684 -0.32771,-0.93322 -0.35358,-0.9331 -0.0151,7e-5 -0.0936,0.18867 -0.1745,0.4191 -0.0809,0.23043 -0.15764,0.44755 -0.17054,0.48247 -0.0174,0.047 0.0701,0.0635 0.33759,0.0635 0.19857,0 0.36103,-0.0144 0.36103,-0.032 z m 4.635497,1.46914 c 0.0801,-0.0892 0.0889,-0.23668 0.0889,-1.48797 0,-1.25108 -0.009,-1.39888 -0.0889,-1.48852 -0.0879,-0.0984 -0.0814,-0.0993 0.58131,-0.0759 0.62876,0.0222 0.6908,0.0338 1.00346,0.18768 0.584295,0.28765 0.874238,0.81198 0.830019,1.50101 -0.03972,0.61899 -0.321679,1.02198 -0.903489,1.29131 -0.24285,0.11243 -0.36577,0.13209 -0.9398,0.15035 -0.65175,0.0207 -0.65923,0.0197 -0.5715,-0.078 z m 1.26015,-0.19229 c 0.32687,-0.11201 0.578143,-0.33808 0.73724,-0.66326 0.119156,-0.24354 0.133749,-0.32425 0.112343,-0.62126 -0.05791,-0.80353 -0.640393,-1.37898 -1.398533,-1.38164 l -0.3175,-0.001 v 1.36313 c 0,0.74973 0.0171,1.38078 0.0381,1.40235 0.0538,0.0553 0.55301,-0.004 0.82835,-0.0982 z m 2.689554,0.17752 c 0.09654,-0.0965 0.1016,-0.16933 0.1016,-1.4619 0,-1.14895 -0.01229,-1.37783 -0.07908,-1.4732 l -0.07908,-0.1129 h 0.310562 0.310561 l -0.07908,0.1129 c -0.06675,0.0953 -0.07908,0.32317 -0.07908,1.4619 0,1.13873 0.01233,1.36659 0.07908,1.4619 l 0.07908,0.1129 h -0.333081 -0.33308 z m 2.11119,0.0295 c 0.09357,-0.0684 0.09861,-0.1452 0.09861,-1.5027 0,-1.3575 -0.005,-1.43427 -0.09861,-1.50269 -0.08649,-0.0633 0.01495,-0.0721 0.8255,-0.0721 h 0.92411 l -0.002,0.2413 -0.002,0.2413 -0.07579,-0.1397 -0.07579,-0.1397 h -0.582578 -0.582577 v 0.5842 0.5842 h 0.454319 c 0.411893,0 0.461704,-0.0105 0.5334,-0.1129 0.07551,-0.10782 0.07908,-0.0998 0.07908,0.1778 v 0.2907 l -0.1016,-0.1016 c -0.08566,-0.0857 -0.169334,-0.1016 -0.5334,-0.1016 h -0.4318 v 0.7199 c 0,0.59859 0.01417,0.73556 0.08407,0.8128 0.08067,0.0891 0.07,0.0929 -0.263709,0.0929 -0.312811,0 -0.337867,-0.007 -0.249174,-0.0721 z m 3.189536,-0.0208 c 0.07392,-0.0817 0.08407,-0.26071 0.08407,-1.4819 0,-1.22119 -0.01016,-1.40022 -0.08407,-1.4819 -0.08115,-0.0897 -0.05286,-0.0929 0.8128,-0.0929 h 0.896874 l -7.49e-4,0.2413 c -7.07e-4,0.22771 -0.0044,0.23415 -0.0649,0.1143 -0.06224,-0.12322 -0.08187,-0.12743 -0.659651,-0.14131 l -0.595498,-0.0143 v 0.58581 0.58581 h 0.476403 c 0.436558,0 0.483073,-0.01 0.556136,-0.1143 0.07651,-0.10968 0.07984,-0.10243 0.0824,0.17932 l 0.0027,0.29362 -0.142608,-0.10543 c -0.121343,-0.0897 -0.202771,-0.1032 -0.5461,-0.0904 l -0.403492,0.015 -0.01412,0.69708 c -0.01303,0.643 -0.0061,0.70506 0.0889,0.8001 l 0.103025,0.10302 h -0.338074 c -0.324302,0 -0.334649,-0.004 -0.254,-0.0929 z m 3.153845,0.0131 c 0.06872,-0.0687 0.07983,-0.27502 0.07983,-1.4819 0,-1.24061 -0.0098,-1.41291 -0.08517,-1.49618 -0.08265,-0.0913 -0.05822,-0.0937 0.8255,-0.0802 l 0.910668,0.0139 0.01617,0.22716 0.01617,0.22717 -0.108758,-0.13827 c -0.106517,-0.13541 -0.120198,-0.13826 -0.663872,-0.13826 h -0.555112 v 0.5842 0.5842 h 0.454319 c 0.411893,0 0.461704,-0.0105 0.5334,-0.1129 0.07551,-0.10782 0.07908,-0.0998 0.07908,0.1778 v 0.2907 l -0.1016,-0.1016 c -0.08566,-0.0857 -0.169334,-0.1016 -0.5334,-0.1016 h -0.4318 v 0.7366 0.7366 h 0.536739 c 0.295207,0 0.582817,-0.0247 0.639134,-0.0548 0.05632,-0.0301 0.13393,-0.12729 0.172472,-0.2159 l 0.07008,-0.1611 0.002,0.2921 0.002,0.2921 h -0.968829 c -0.880753,0 -0.961571,-0.007 -0.889,-0.0798 z m 3.302748,-0.0331 c 0.06675,-0.0953 0.07908,-0.32317 0.07908,-1.4619 0,-1.17633 -0.01083,-1.36445 -0.08459,-1.46976 l -0.08459,-0.12076 0.612373,0.0282 c 0.899135,0.0414 1.182021,0.2208 1.182021,0.74951 0,0.31328 -0.145023,0.53312 -0.443631,0.67251 -0.132984,0.0621 -0.249274,0.11699 -0.258422,0.12204 -0.04019,0.0222 0.912784,1.3881 1.036168,1.48516 l 0.137166,0.10789 h -0.164113 c -0.280214,0 -0.432877,-0.14463 -0.919817,-0.87141 -0.259196,-0.38686 -0.48832,-0.70339 -0.509164,-0.70339 -0.02084,0 -0.07406,-0.0139 -0.118253,-0.0308 -0.07093,-0.0272 -0.08035,0.0532 -0.08035,0.6858 0,0.6489 0.0096,0.72623 0.1016,0.81823 l 0.1016,0.1016 h -0.333081 -0.333081 z m 1.096743,-1.74216 c 0.203848,-0.10541 0.320971,-0.34692 0.287884,-0.5936 -0.04485,-0.33436 -0.238708,-0.475 -0.695946,-0.50488 l -0.2794,-0.0183 -0.01431,0.5969 -0.01431,0.5969 h 0.283535 c 0.155944,0 0.350593,-0.0347 0.432552,-0.0771 z m 2.425435,1.77598 c 0.111969,-0.0784 0.112904,-0.0905 0.112904,-1.4619 0,-1.16934 -0.01221,-1.40024 -0.07908,-1.49572 l -0.07908,-0.1129 h 0.891881 0.891881 l -7.49e-4,0.2413 c -7.07e-4,0.22771 -0.0044,0.23415 -0.0649,0.1143 -0.06224,-0.12322 -0.08187,-0.12743 -0.659651,-0.14131 l -0.595498,-0.0143 v 0.58581 0.58581 h 0.476403 c 0.436558,0 0.483073,-0.01 0.556136,-0.1143 0.07651,-0.10968 0.07984,-0.10243 0.0824,0.17932 l 0.0027,0.29362 -0.142608,-0.10543 c -0.121343,-0.0897 -0.202771,-0.1032 -0.5461,-0.0904 l -0.403492,0.015 -0.0141,0.7239 -0.01409,0.7239 h 0.538134 c 0.593913,0 0.693787,-0.0321 0.838784,-0.26994 l 0.09869,-0.16186 1.9e-4,0.2921 1.9e-4,0.2921 h -1.001904 c -0.921285,0 -0.992818,-0.006 -0.889,-0.0791 z m 3.290894,0.007 c 0.09357,-0.0684 0.09861,-0.1452 0.09861,-1.5027 0,-1.37173 -0.0042,-1.43367 -0.1016,-1.50556 -0.09377,-0.0692 -0.08222,-0.0738 0.149919,-0.0594 l 0.25152,0.0156 0.84068,1.32864 0.840681,1.32864 0.0136,-1.24744 c 0.01207,-1.10694 0.004,-1.25802 -0.07137,-1.34134 -0.08162,-0.0902 -0.0745,-0.0939 0.180583,-0.0939 h 0.265561 l -0.105287,0.13385 c -0.100896,0.12827 -0.105287,0.19395 -0.105287,1.5748 v 1.44095 l -0.1397,-0.002 c -0.127014,-0.002 -0.215817,-0.12378 -0.9779,-1.34084 l -0.8382,-1.33862 -0.0136,1.24694 c -0.01207,1.10647 -0.004,1.25752 0.07137,1.34084 0.08165,0.0902 0.07433,0.0939 -0.186605,0.0939 -0.247001,0 -0.262658,-0.007 -0.172974,-0.0721 z m 7.916185,-0.006 c 0.123963,-0.12397 0.139488,-0.33009 0.12288,-1.63144 -0.01439,-1.12725 -0.02359,-1.23543 -0.113523,-1.33471 l -0.09787,-0.10804 0.910667,0.0139 0.910668,0.0139 0.01617,0.22716 0.01617,0.22717 -0.108758,-0.13827 c -0.106517,-0.13541 -0.120198,-0.13826 -0.663872,-0.13826 h -0.555112 v 0.5842 0.5842 h 0.454319 c 0.411893,0 0.461704,-0.0105 0.5334,-0.1129 0.07551,-0.10782 0.07908,-0.0998 0.07908,0.1778 v 0.2907 l -0.1016,-0.1016 c -0.08566,-0.0857 -0.169334,-0.1016 -0.5334,-0.1016 h -0.4318 v 0.7366 0.7366 h 0.536739 c 0.295207,0 0.582817,-0.0247 0.639134,-0.0548 0.05632,-0.0301 0.13393,-0.12729 0.172472,-0.2159 l 0.07008,-0.1611 0.002,0.2921 0.002,0.2921 h -0.968829 c -0.870215,0 -0.960906,-0.008 -0.890996,-0.0778 z"
         style="fill:#000000"
         id="path1"
         inkscape:label="path1" /></g></g></svg>
