<?xml version="1.0" encoding="UTF-8" standalone="no"?>
<!-- Created with Inkscape (http://www.inkscape.org/) -->

<svg
   width="512"
   height="512"
   viewBox="0 0 135.46667 135.46667"
   version="1.1"
   id="svg1"
   xml:space="preserve"
   inkscape:export-filename="logo_kleur_master512px.png"
   inkscape:export-xdpi="96"
   inkscape:export-ydpi="96"
   xmlns:inkscape="http://www.inkscape.org/namespaces/inkscape"
   xmlns:sodipodi="http://sodipodi.sourceforge.net/DTD/sodipodi-0.dtd"
   xmlns="http://www.w3.org/2000/svg"
   xmlns:svg="http://www.w3.org/2000/svg"><sodipodi:namedview
     id="namedview1"
     pagecolor="#ffffff"
     bordercolor="#000000"
     borderopacity="0.25"
     inkscape:showpageshadow="2"
     inkscape:pageopacity="0.0"
     inkscape:pagecheckerboard="0"
     inkscape:deskcolor="#d1d1d1"
     inkscape:document-units="mm"
     inkscape:zoom="1.0440797"
     inkscape:cx="396.52146"
     inkscape:cy="561.25984"
     inkscape:window-width="2560"
     inkscape:window-height="1476"
     inkscape:window-x="-12"
     inkscape:window-y="1878"
     inkscape:window-maximized="1"
     inkscape:current-layer="g53"><inkscape:page
       x="0"
       y="0"
       width="135.46667"
       height="135.46667"
       id="page2"
       margin="0"
       bleed="0" /></sodipodi:namedview><defs
     id="defs1" /><g
     inkscape:label="Laag 1"
     inkscape:groupmode="layer"
     id="layer1"
     transform="translate(-30.991128,-130.83388)"><g
       id="g77"
       transform="matrix(3.5908575,0,0,3.5908575,-79.863781,-334.42825)"
       style="stroke-width:0.278485"><path
         style="display:inline;fill:#1850ab;stroke-width:0.278485"
         d="m -158.58752,140.73696 c -1.3163,-0.10841 -2.64562,-0.77398 -3.66038,-1.83271 -0.85103,-0.8879 -1.32746,-1.78595 -1.62763,-3.06802 -0.076,-0.32451 -0.0944,-0.59576 -0.0912,-1.3462 0.004,-0.84152 0.0175,-0.99027 0.13403,-1.4224 0.16293,-0.60437 0.4613,-1.29926 0.7787,-1.8136 0.35399,-0.57362 1.48909,-1.69379 2.01606,-1.98954 1.98502,-1.11405 3.95792,-1.19609 5.99566,-0.24931 l 0.45074,0.20942 -0.84827,0.84937 -0.84827,0.84938 -0.35769,-0.12166 c -0.3197,-0.10874 -0.44563,-0.12166 -1.18553,-0.12166 -0.79178,0 -0.8459,0.007 -1.24232,0.15127 -1.18835,0.43369 -2.07827,1.36035 -2.48726,2.58995 -0.14714,0.44237 -0.15972,0.53334 -0.15814,1.143 0.002,0.79339 0.067,1.07276 0.41393,1.77998 0.66582,1.35737 1.8065,2.10893 3.32882,2.19327 0.85831,0.0476 1.63243,-0.20063 2.413,-0.7736 0.18161,-0.13331 1.28041,-1.18736 2.44178,-2.34233 l 2.11158,-2.09994 h 5.45815 5.45815 l 0.90501,-0.90606 0.90502,-0.90606 -6.94197,-0.0353 -6.94197,-0.0353 -2.01537,1.99136 c -2.89067,2.85622 -2.89718,2.86125 -3.65468,2.82879 -0.29361,-0.0126 -0.50746,-0.0504 -0.63275,-0.11181 -0.29349,-0.14393 -0.61211,-0.45128 -0.77766,-0.75016 -0.13888,-0.25074 -0.15069,-0.31187 -0.15065,-0.78006 4e-5,-0.45192 0.015,-0.53627 0.13515,-0.76404 0.14201,-0.26909 0.48894,-0.62299 0.73595,-0.75072 0.28224,-0.14596 0.75057,-0.20602 1.08828,-0.13958 0.30189,0.0594 0.31238,0.0577 0.4953,-0.0811 0.10279,-0.078 0.98918,-0.9367 1.96976,-1.90827 l 1.78288,-1.7665 h 8.72147 8.72147 l 0.31539,-0.15921 c 1.35775,-0.68539 2.95791,-0.85738 4.42656,-0.4758 2.12394,0.55185 3.82698,2.24918 4.40899,4.39421 0.10587,0.39018 0.11709,0.53952 0.11637,1.5494 -7.7e-4,1.07333 -0.007,1.13873 -0.1473,1.651 -0.29394,1.07027 -0.69098,1.7879 -1.42624,2.57789 -0.9193,0.98771 -1.94163,1.61319 -3.10907,1.90219 -0.37286,0.0923 -0.59552,0.1109 -1.3364,0.11159 -0.96819,9.1e-4 -1.44518,-0.0608 -2.0066,-0.25969 -0.45917,-0.16264 -1.3462,-0.57639 -1.3462,-0.62792 0,-0.0219 0.36005,-0.40841 0.8001,-0.85893 l 0.8001,-0.81911 0.36458,0.1257 c 0.84794,0.29235 1.65397,0.3037 2.45718,0.0346 0.69934,-0.2343 1.0744,-0.47822 1.63769,-1.06509 0.53202,-0.55429 0.80263,-1.01674 0.98311,-1.68003 0.12544,-0.46101 0.12512,-1.57412 -5.8e-4,-2.02906 -0.37233,-1.34759 -1.32046,-2.33218 -2.69878,-2.80258 -0.3076,-0.10498 -0.44817,-0.12109 -1.0414,-0.11936 -1.06323,0.003 -1.59073,0.18437 -2.3876,0.82045 -0.23749,0.18957 -1.27972,1.18507 -2.31607,2.21221 l -1.88427,1.86754 h -5.44932 -5.44932 l -1.55678,1.5367 c -2.33473,2.3046 -2.84294,2.72854 -3.78632,3.15845 -1.03434,0.47136 -1.85867,0.59603 -3.20696,0.48498 z"
         transform="translate(194.9582,2.471855)"
         id="path46" /><path
         style="display:inline;fill:#000000;stroke-width:0.278485"
         d="m -141.17882,151.14248 -1.08413,-1.10326 -0.0287,-6.25073 -0.0287,-6.25073 h 0.78706 c 0.43289,0 1.41153,-0.0152 2.17475,-0.0337 l 1.38769,-0.0337 2.11654,-2.08715 c 1.16409,-1.14793 2.21588,-2.15573 2.33732,-2.23955 0.21434,-0.14795 0.23798,-0.15239 0.80933,-0.15194 0.50399,3.9e-4 0.61791,0.0161 0.79299,0.10949 0.27118,0.14462 0.66509,0.57191 0.80169,0.86962 0.15784,0.34403 0.15353,0.95263 -0.009,1.31668 -0.14444,0.32289 -0.57067,0.73913 -0.90584,0.88464 -0.29105,0.12635 -0.75252,0.14748 -1.09346,0.0501 -0.21567,-0.0616 -0.25453,-0.0595 -0.37667,0.0205 -0.0749,0.0491 -0.90394,0.8488 -1.84231,1.77717 l -1.70613,1.68793 -1.44556,0.0346 c -0.79505,0.019 -1.45766,0.0467 -1.47246,0.0615 -0.0148,0.0148 -0.0354,2.73996 -0.0457,6.05591 -0.0103,3.31595 -0.0335,6.10932 -0.0515,6.20749 l -0.0327,0.17848 z"
         transform="translate(194.9582,2.471855)"
         id="path47" /><path
         style="display:inline;fill:#000000;stroke-width:0.278485"
         d="m -146.49548,163.42408 c -0.48651,-0.11092 -0.92837,-0.27698 -1.46686,-0.55127 -2.16561,-1.10312 -3.50344,-3.2673 -3.50821,-5.67518 -0.002,-0.99403 0.17273,-1.72756 0.66385,-2.78737 l 0.22056,-0.47597 0.44513,0.40871 c 0.24482,0.22479 0.62537,0.59116 0.84565,0.81416 0.44387,0.44932 0.42655,0.37666 0.23818,0.99907 -0.14293,0.47227 -0.18814,1.18274 -0.10729,1.68605 0.24101,1.50041 1.27831,2.71863 2.74519,3.224 0.45381,0.15635 0.52504,0.16638 1.1938,0.16811 0.60699,0.002 0.76703,-0.0156 1.0922,-0.11719 1.28285,-0.40076 2.33848,-1.41407 2.71728,-2.60834 0.32343,-1.01968 0.25619,-2.07359 -0.189,-2.96223 -0.29725,-0.59335 -0.69012,-1.03824 -2.71574,-3.07534 l -2.04774,-2.05934 v -5.34599 -5.34599 l -0.8509,0.0139 -0.8509,0.0139 -0.0129,6.07602 -0.0129,6.07602 0.92731,0.90625 c 1.98566,1.94059 3.22401,3.21115 3.42648,3.5156 0.25255,0.37975 0.31048,0.69869 0.22098,1.21668 -0.0732,0.42365 -0.22591,0.69437 -0.56231,0.99682 -0.50546,0.45445 -1.18052,0.58133 -1.73715,0.32649 -0.37739,-0.17277 -0.76634,-0.54029 -0.93359,-0.88213 -0.12603,-0.2576 -0.13173,-0.30264 -0.10693,-0.84453 0.0144,-0.31483 0.034,-0.61021 0.0436,-0.65639 0.0114,-0.0552 -0.59188,-0.68041 -1.76059,-1.8245 l -1.778,-1.74053 -0.0309,-2.3665 c -0.017,-1.30158 -0.0341,-4.25481 -0.0381,-6.56275 l -0.007,-4.19624 -0.38866,-0.0329 c -0.21377,-0.0181 -0.76812,-0.0337 -1.2319,-0.0348 l -0.84324,-0.002 1.13161,-1.11565 1.13161,-1.11565 2.27199,1.3e-4 c 1.2496,8e-5 2.73491,0.0151 3.30069,0.0335 l 1.0287,0.0333 v 5.99527 5.99527 l 1.84414,1.85796 c 1.92149,1.93591 2.16531,2.22571 2.58897,3.07717 0.77191,1.5514 0.86881,3.43331 0.25633,4.9784 -0.72555,1.83032 -2.20453,3.21353 -4.10524,3.83938 -0.50427,0.16604 -0.86679,0.23753 -1.6256,0.25685 -0.75881,0.0193 -1.20192,-0.0802 -1.4224,-0.1303 z"
         transform="translate(194.9582,2.471855)"
         id="path53" /></g></g></svg>
